# File created by Blade
# Date/Time:  Mon Sep 22 16:09:39 2014
# Frame Rate: 120.000 fps
#------------------------------------------------------
:FULLY-SPECIFIED
:DEGREES
3359
root 2.401716 36.865510 4.290295 6.414306 -8.917167 1.886213
RightUpLeg 4.041748 0.058593 -3.044718
RightLeg -5.615489 -0.000000 0.000000
RightFoot -14.778978 -16.019106 16.015678
RightToeBase 13.010953 -0.000000 -0.000000
LeftUpLeg 4.192433 6.468014 0.955493
LeftLeg -4.058676 -0.000000 0.000000
LeftFoot -11.607232 13.486353 -18.520441
LeftToeBase 7.134905 -0.000000 -0.000000
Spine -11.431137 -24.975181 5.389481
RightShoulder -13.985585 -21.054258 -2.094144
RightArm 7.050212 55.091853 89.453479
RightForeArm 88.021017 -0.000000 99.623501
RightHand 21.848817 -0.000000 -18.352125
RightHandThumb1 -24.326973 -0.000000 -32.862282
LeftShoulder -30.088104 40.812309 -8.616396
LeftArm 40.656135 21.185817 -68.417754
LeftForeArm 19.913685 -0.000000 26.754240
LeftHand -13.009027 -0.000000 -9.935475
LeftHandThumb1 -26.253704 0.000000 33.147579
Head 15.131353 11.196152 6.725214
3360
root 2.401664 36.864932 4.290344 6.414099 -8.946225 1.872923
RightUpLeg 4.025676 0.056739 -3.036396
RightLeg -5.587573 -0.000000 0.000000
RightFoot -14.741796 -16.019577 15.928475
RightToeBase 12.916885 -0.000000 -0.000000
LeftUpLeg 4.202360 6.471650 0.963404
LeftLeg -4.064601 -0.000000 0.000000
LeftFoot -11.626542 13.516739 -18.522730
LeftToeBase 7.128133 -0.000000 -0.000000
Spine -11.432718 -24.973762 5.454472
RightShoulder -14.039222 -21.151071 -2.018912
RightArm 7.394478 55.225365 89.800789
RightForeArm 88.602810 0.000000 100.827978
RightHand 21.646117 -0.000000 -17.366043
RightHandThumb1 -24.326973 -0.000000 -32.862282
LeftShoulder -30.082228 40.780511 -8.629036
LeftArm 40.623134 21.167970 -68.435558
LeftForeArm 19.986742 -0.000000 26.742044
LeftHand -13.191152 -0.000000 -9.628334
LeftHandThumb1 -26.253704 0.000000 33.147579
Head 15.172951 11.274582 6.674608
3361
root 2.401437 36.863866 4.291324 6.407944 -8.963351 1.868717
RightUpLeg 4.031427 0.083225 -3.031744
RightLeg -5.587401 -0.000000 0.000000
RightFoot -14.794357 -16.011477 15.981456
RightToeBase 13.023849 -0.000000 -0.000000
LeftUpLeg 4.214500 6.473130 0.964957
LeftLeg -4.067586 -0.000000 0.000000
LeftFoot -11.648456 13.538657 -18.531747
LeftToeBase 7.126090 -0.000000 -0.000000
Spine -11.448227 -24.985520 5.516699
RightShoulder -14.083416 -21.266519 -1.938330
RightArm 7.712297 55.263173 90.147202
RightForeArm 89.248459 -0.000000 102.420176
RightHand 21.676292 0.000000 -16.936449
RightHandThumb1 -24.326973 -0.000000 -32.862282
LeftShoulder -30.098843 40.816230 -8.654346
LeftArm 40.642345 21.113500 -68.463153
LeftForeArm 19.913566 -0.000000 26.718310
LeftHand -13.043392 -0.000000 -9.695059
LeftHandThumb1 -26.253704 0.000000 33.147579
Head 15.222054 11.391623 6.612436
3362
root 2.402234 36.862927 4.292419 6.403718 -8.986281 1.865527
RightUpLeg 4.034371 0.110902 -3.033597
RightLeg -5.590196 -0.000000 0.000000
RightFoot -14.799639 -16.006672 15.969232
RightToeBase 13.061914 -0.000000 -0.000000
LeftUpLeg 4.226580 6.468449 0.963845
LeftLeg -4.071234 -0.000000 0.000000
LeftFoot -11.672571 13.562262 -18.533375
LeftToeBase 7.185109 -0.000000 -0.000000
Spine -11.475500 -25.011327 5.620327
RightShoulder -14.098794 -21.283365 -1.869797
RightArm 7.815543 55.372977 90.332988
RightForeArm 89.997066 -0.000000 104.492718
RightHand 21.569304 -0.000000 -16.165134
RightHandThumb1 -24.326973 -0.000000 -32.862282
LeftShoulder -30.126707 40.821447 -8.705367
LeftArm 40.635122 21.100632 -68.462754
LeftForeArm 19.912160 -0.000000 26.729041
LeftHand -13.038864 -0.000000 -9.717951
LeftHandThumb1 -26.253704 0.000000 33.147579
Head 15.270870 11.564505 6.480441
3363
root 2.402202 36.861867 4.294301 6.396837 -9.011880 1.868346
RightUpLeg 4.043136 0.127757 -3.043810
RightLeg -5.590684 -0.000000 0.000000
RightFoot -14.793735 -15.974747 15.978711
RightToeBase 13.010252 -0.000000 -0.000000
LeftUpLeg 4.239020 6.493645 0.957699
LeftLeg -4.070993 -0.000000 0.000000
LeftFoot -11.671983 13.575023 -18.512155
LeftToeBase 7.136740 -0.000000 -0.000000
Spine -11.521027 -25.023073 5.729733
RightShoulder -14.038425 -21.230982 -1.842711
RightArm 7.605718 55.540339 90.336360
RightForeArm 90.459775 -0.000000 107.087518
RightHand 21.585302 -0.000000 -15.325265
RightHandThumb1 -24.326973 -0.000000 -32.862282
LeftShoulder -30.116513 40.858441 -8.717792
LeftArm 40.618515 21.082480 -68.487984
LeftForeArm 19.775913 -0.000000 26.746677
LeftHand -12.812750 0.000000 -10.010773
LeftHandThumb1 -26.253704 0.000000 33.147579
Head 15.355608 11.743040 6.320354
3364
root 2.402965 36.860674 4.297201 6.392211 -9.038296 1.866605
RightUpLeg 4.051992 0.146944 -3.046689
RightLeg -5.600086 -0.000000 0.000000
RightFoot -14.753200 -15.995240 15.919904
RightToeBase 12.910666 -0.000000 -0.000000
LeftUpLeg 4.252232 6.525281 0.956200
LeftLeg -4.071409 -0.000000 0.000000
LeftFoot -11.679359 13.567476 -18.503281
LeftToeBase 7.131992 -0.000000 -0.000000
Spine -11.593935 -25.030971 5.881913
RightShoulder -14.082333 -21.455339 -1.726636
RightArm 7.972379 55.673186 90.812597
RightForeArm 90.415812 -0.000000 110.076181
RightHand 21.583378 0.000000 -13.831893
RightHandThumb1 -24.326973 -0.000000 -32.862282
LeftShoulder -30.085268 40.877559 -8.714943
LeftArm 40.572046 21.111608 -68.514925
LeftForeArm 19.932127 -0.000000 26.779301
LeftHand -13.043943 -0.000000 -9.687782
LeftHandThumb1 -26.253704 0.000000 33.147579
Head 15.468207 12.032626 6.157033
3365
root 2.404163 36.858984 4.300618 6.399487 -9.070134 1.866985
RightUpLeg 4.052439 0.198465 -3.051176
RightLeg -5.614534 -0.000000 0.000000
RightFoot -14.803307 -15.996244 15.975536
RightToeBase 13.036281 -0.000000 -0.000000
LeftUpLeg 4.259894 6.530082 0.949504
LeftLeg -4.082246 -0.000000 0.000000
LeftFoot -11.703620 13.585613 -18.516547
LeftToeBase 7.173980 -0.000000 -0.000000
Spine -11.700479 -25.036630 6.063021
RightShoulder -14.132848 -21.588301 -1.681189
RightArm 8.168223 55.773879 91.129617
RightForeArm 89.979303 0.000000 113.323518
RightHand 21.699543 -0.000000 -11.409194
RightHandThumb1 -24.326973 -0.000000 -32.862282
LeftShoulder -30.110249 40.915151 -8.723425
LeftArm 40.576435 21.160586 -68.533338
LeftForeArm 19.844982 -0.000000 26.765775
LeftHand -12.874210 0.000000 -9.976162
LeftHandThumb1 -26.253704 0.000000 33.147579
Head 15.622066 12.299651 5.924742
